<svg width="115" height="110" viewBox="0 0 115 110" fill="none" xmlns="http://www.w3.org/2000/svg">
<path d="M26.649 0.593997V108H0.486V0.593997H26.649ZM80.34 109.224C72.894 109.224 66.264 107.949 60.45 105.399C54.636 102.849 50.046 99.381 46.68 94.995C43.314 90.507 41.427 85.509 41.019 80.001H66.876C67.182 82.959 68.559 85.356 71.007 87.192C73.455 89.028 76.464 89.946 80.034 89.946C83.298 89.946 85.797 89.334 87.5311 88.11C89.367 86.784 90.285 85.101 90.285 83.061C90.285 80.613 89.01 78.828 86.4601 77.706C83.9101 76.482 79.779 75.156 74.067 73.728C67.947 72.3 62.847 70.821 58.767 69.291C54.687 67.659 51.168 65.16 48.21 61.794C45.252 58.326 43.773 53.685 43.773 47.871C43.773 42.975 45.099 38.538 47.751 34.56C50.505 30.48 54.483 27.267 59.685 24.921C64.989 22.575 71.262 21.402 78.504 21.402C89.2141 21.402 97.6291 24.054 103.749 29.358C109.971 34.662 113.541 41.7 114.459 50.472H90.285C89.877 47.514 88.551 45.168 86.307 43.434C84.165 41.7 81.309 40.833 77.739 40.833C74.679 40.833 72.333 41.445 70.701 42.669C69.069 43.791 68.253 45.372 68.253 47.412C68.253 49.86 69.528 51.696 72.078 52.92C74.73 54.144 78.81 55.368 84.3181 56.592C90.642 58.224 95.793 59.856 99.771 61.488C103.749 63.018 107.217 65.568 110.175 69.138C113.235 72.606 114.816 77.298 114.918 83.214C114.918 88.212 113.49 92.7 110.634 96.678C107.88 100.554 103.851 103.614 98.5471 105.858C93.3451 108.102 87.276 109.224 80.34 109.224Z" fill="#7D007B"/>
</svg>
