<svg width="422" height="116" viewBox="0 0 422 116" fill="none" xmlns="http://www.w3.org/2000/svg">
<path d="M154.284 6.594L126.285 114H94.614L77.478 43.314L59.73 114H28.059L0.825 6.594H28.824L44.277 84.777L63.402 6.594H92.166L110.526 84.777L126.132 6.594H154.284ZM219.884 27.708C229.676 27.708 237.53 30.972 243.446 37.5C249.362 43.926 252.32 52.8 252.32 64.122V114H226.31V67.641C226.31 61.929 224.831 57.492 221.873 54.33C218.915 51.168 214.937 49.587 209.939 49.587C204.941 49.587 200.963 51.168 198.005 54.33C195.047 57.492 193.568 61.929 193.568 67.641V114H167.405V0.779999H193.568V40.101C196.22 36.327 199.841 33.318 204.431 31.074C209.021 28.83 214.172 27.708 219.884 27.708ZM265.299 71.16C265.299 62.388 266.931 54.687 270.195 48.057C273.561 41.427 278.1 36.327 283.812 32.757C289.524 29.187 295.899 27.402 302.937 27.402C308.955 27.402 314.208 28.626 318.696 31.074C323.286 33.522 326.805 36.735 329.253 40.713V28.626H355.416V114H329.253V101.913C326.703 105.891 323.133 109.104 318.543 111.552C314.055 114 308.802 115.224 302.784 115.224C295.848 115.224 289.524 113.439 283.812 109.869C278.1 106.197 273.561 101.046 270.195 94.416C266.931 87.684 265.299 79.932 265.299 71.16ZM329.253 71.313C329.253 64.785 327.417 59.634 323.745 55.86C320.175 52.086 315.789 50.199 310.587 50.199C305.385 50.199 300.948 52.086 297.276 55.86C293.706 59.532 291.921 64.632 291.921 71.16C291.921 77.688 293.706 82.89 297.276 86.766C300.948 90.54 305.385 92.427 310.587 92.427C315.789 92.427 320.175 90.54 323.745 86.766C327.417 82.992 329.253 77.841 329.253 71.313ZM421.926 91.815V114H408.615C399.129 114 391.734 111.705 386.43 107.115C381.126 102.423 378.474 94.824 378.474 84.318V50.352H368.07V28.626H378.474V7.818H404.637V28.626H421.773V50.352H404.637V84.624C404.637 87.174 405.249 89.01 406.473 90.132C407.697 91.254 409.737 91.815 412.593 91.815H421.926Z" fill="#7D007B"/>
</svg>
