<svg width="544" height="116" viewBox="0 0 544 116" fill="none" xmlns="http://www.w3.org/2000/svg">
<path d="M96.57 114H70.407L26.649 47.751V114H0.486V6.594H26.649L70.407 73.149V6.594H96.57V114ZM110.333 71.16C110.333 62.388 111.965 54.687 115.229 48.057C118.595 41.427 123.134 36.327 128.846 32.757C134.558 29.187 140.933 27.402 147.971 27.402C153.989 27.402 159.242 28.626 163.73 31.074C168.32 33.522 171.839 36.735 174.287 40.713V28.626H200.45V114H174.287V101.913C171.737 105.891 168.167 109.104 163.577 111.552C159.089 114 153.836 115.224 147.818 115.224C140.882 115.224 134.558 113.439 128.846 109.869C123.134 106.197 118.595 101.046 115.229 94.416C111.965 87.684 110.333 79.932 110.333 71.16ZM174.287 71.313C174.287 64.785 172.451 59.634 168.779 55.86C165.209 52.086 160.823 50.199 155.621 50.199C150.419 50.199 145.982 52.086 142.31 55.86C138.74 59.532 136.955 64.632 136.955 71.16C136.955 77.688 138.74 82.89 142.31 86.766C145.982 90.54 150.419 92.427 155.621 92.427C160.823 92.427 165.209 90.54 168.779 86.766C172.451 82.992 174.287 77.841 174.287 71.313ZM328.314 27.708C338.922 27.708 347.337 30.921 353.559 37.347C359.883 43.773 363.045 52.698 363.045 64.122V114H337.035V67.641C337.035 62.133 335.556 57.9 332.598 54.942C329.742 51.882 325.764 50.352 320.664 50.352C315.564 50.352 311.535 51.882 308.577 54.942C305.721 57.9 304.293 62.133 304.293 67.641V114H278.283V67.641C278.283 62.133 276.804 57.9 273.846 54.942C270.99 51.882 267.012 50.352 261.912 50.352C256.812 50.352 252.783 51.882 249.825 54.942C246.969 57.9 245.541 62.133 245.541 67.641V114H219.378V28.626H245.541V39.336C248.193 35.766 251.661 32.961 255.945 30.921C260.229 28.779 265.074 27.708 270.48 27.708C276.906 27.708 282.618 29.085 287.616 31.839C292.716 34.593 296.694 38.52 299.55 43.62C302.508 38.928 306.537 35.103 311.637 32.145C316.737 29.187 322.296 27.708 328.314 27.708ZM461.82 69.936C461.82 72.384 461.667 74.934 461.361 77.586H402.15C402.558 82.89 404.241 86.97 407.199 89.826C410.259 92.58 413.982 93.957 418.368 93.957C424.896 93.957 429.435 91.203 431.985 85.695H459.831C458.403 91.305 455.802 96.354 452.028 100.842C448.356 105.33 443.715 108.849 438.105 111.399C432.495 113.949 426.222 115.224 419.286 115.224C410.922 115.224 403.476 113.439 396.948 109.869C390.42 106.299 385.32 101.199 381.648 94.569C377.976 87.939 376.14 80.187 376.14 71.313C376.14 62.439 377.925 54.687 381.495 48.057C385.167 41.427 390.267 36.327 396.795 32.757C403.323 29.187 410.82 27.402 419.286 27.402C427.548 27.402 434.892 29.136 441.318 32.604C447.744 36.072 452.742 41.019 456.312 47.445C459.984 53.871 461.82 61.368 461.82 69.936ZM435.045 63.051C435.045 58.563 433.515 54.993 430.455 52.341C427.395 49.689 423.57 48.363 418.98 48.363C414.594 48.363 410.871 49.638 407.811 52.188C404.853 54.738 403.017 58.359 402.303 63.051H435.045ZM506.988 0.626991C517.902 0.626991 526.623 3.48299 533.151 9.19499C539.781 14.907 543.096 22.965 543.096 33.369C543.096 42.957 539.934 50.454 533.61 55.86C527.388 61.164 519.126 63.867 508.824 63.969L508.059 75.444H485.109L484.344 46.986H493.524C501.378 46.986 507.345 46.017 511.425 44.079C515.607 42.141 517.698 38.622 517.698 33.522C517.698 29.952 516.729 27.147 514.791 25.107C512.853 23.067 510.15 22.047 506.682 22.047C503.01 22.047 500.154 23.118 498.114 25.26C496.074 27.3 495.054 30.105 495.054 33.675H470.421C470.217 27.453 471.492 21.843 474.246 16.845C477.102 11.847 481.284 7.92 486.792 5.064C492.402 2.10599 499.134 0.626991 506.988 0.626991ZM496.89 115.224C492.3 115.224 488.526 113.898 485.568 111.246C482.712 108.492 481.284 105.126 481.284 101.148C481.284 97.068 482.712 93.651 485.568 90.897C488.526 88.143 492.3 86.766 496.89 86.766C501.378 86.766 505.05 88.143 507.906 90.897C510.864 93.651 512.343 97.068 512.343 101.148C512.343 105.126 510.864 108.492 507.906 111.246C505.05 113.898 501.378 115.224 496.89 115.224Z" fill="#7D007B"/>
</svg>
