<svg width="660" height="208" viewBox="0 0 660 208" fill="none" xmlns="http://www.w3.org/2000/svg">
<path d="M74.52 153L44.444 98.41H35.998V153H0.772001V8.388H59.894C71.2927 8.388 80.9747 10.3793 88.94 14.362C97.0427 18.3447 103.085 23.838 107.068 30.842C111.051 37.7087 113.042 45.3993 113.042 53.914C113.042 63.5273 110.295 72.1107 104.802 79.664C99.446 87.2173 91.4807 92.5733 80.906 95.732L114.278 153H74.52ZM35.998 73.484H57.834C64.2887 73.484 69.0953 71.9047 72.254 68.746C75.55 65.5873 77.198 61.124 77.198 55.356C77.198 49.8627 75.55 45.5367 72.254 42.378C69.0953 39.2193 64.2887 37.64 57.834 37.64H35.998V73.484ZM243.511 93.672C243.511 96.968 243.305 100.401 242.893 103.972H163.171C163.72 111.113 165.986 116.607 169.969 120.452C174.089 124.16 179.101 126.014 185.007 126.014C193.796 126.014 199.907 122.306 203.341 114.89H240.833C238.91 122.443 235.408 129.241 230.327 135.284C225.383 141.327 219.134 146.065 211.581 149.498C204.027 152.931 195.581 154.648 186.243 154.648C174.981 154.648 164.956 152.245 156.167 147.438C147.377 142.631 140.511 135.765 135.567 126.838C130.623 117.911 128.151 107.474 128.151 95.526C128.151 83.578 130.554 73.1407 135.361 64.214C140.305 55.2873 147.171 48.4207 155.961 43.614C164.75 38.8073 174.844 36.404 186.243 36.404C197.367 36.404 207.255 38.7387 215.907 43.408C224.559 48.0773 231.288 54.738 236.095 63.39C241.039 72.042 243.511 82.136 243.511 93.672ZM207.461 84.402C207.461 78.3593 205.401 73.5527 201.281 69.982C197.161 66.4113 192.011 64.626 185.831 64.626C179.925 64.626 174.913 66.3427 170.793 69.776C166.81 73.2093 164.338 78.0847 163.377 84.402H207.461ZM255.09 95.32C255.09 83.5093 257.288 73.1407 261.682 64.214C266.214 55.2873 272.326 48.4207 280.016 43.614C287.707 38.8073 296.29 36.404 305.766 36.404C313.869 36.404 320.942 38.052 326.984 41.348C333.164 44.644 337.902 48.97 341.198 54.326V38.052H376.424V153H341.198V136.726C337.765 142.082 332.958 146.408 326.778 149.704C320.736 153 313.663 154.648 305.56 154.648C296.222 154.648 287.707 152.245 280.016 147.438C272.326 142.494 266.214 135.559 261.682 126.632C257.288 117.568 255.09 107.131 255.09 95.32ZM341.198 95.526C341.198 86.7367 338.726 79.8013 333.782 74.72C328.976 69.6387 323.07 67.098 316.066 67.098C309.062 67.098 303.088 69.6387 298.144 74.72C293.338 79.664 290.934 86.5307 290.934 95.32C290.934 104.109 293.338 111.113 298.144 116.332C303.088 121.413 309.062 123.954 316.066 123.954C323.07 123.954 328.976 121.413 333.782 116.332C338.726 111.251 341.198 104.315 341.198 95.526ZM394.905 95.32C394.905 83.5093 397.102 73.1407 401.497 64.214C406.029 55.2873 412.14 48.4207 419.831 43.614C427.521 38.8073 436.105 36.404 445.581 36.404C453.134 36.404 460.001 37.9833 466.181 41.142C472.498 44.3007 477.442 48.558 481.013 53.914V0.559998H516.239V153H481.013V136.52C477.717 142.013 472.979 146.408 466.799 149.704C460.756 153 453.683 154.648 445.581 154.648C436.105 154.648 427.521 152.245 419.831 147.438C412.14 142.494 406.029 135.559 401.497 126.632C397.102 117.568 394.905 107.131 394.905 95.32ZM481.013 95.526C481.013 86.7367 478.541 79.8013 473.597 74.72C468.79 69.6387 462.885 67.098 455.881 67.098C448.877 67.098 442.903 69.6387 437.959 74.72C433.152 79.664 430.749 86.5307 430.749 95.32C430.749 104.109 433.152 111.113 437.959 116.332C442.903 121.413 448.877 123.954 455.881 123.954C462.885 123.954 468.79 121.413 473.597 116.332C478.541 111.251 481.013 104.315 481.013 95.526ZM659.143 38.052L587.043 207.59H549.139L575.507 149.086L528.745 38.052H568.091L594.665 109.946L621.033 38.052H659.143Z" fill="#7D007B"/>
</svg>
