<svg width="365" height="110" viewBox="0 0 365 110" fill="none" xmlns="http://www.w3.org/2000/svg">
<path d="M100.592 0.593997L63.413 72.504V108H37.25V72.504L0.071 0.593997H29.753L50.561 45.576L71.216 0.593997H100.592ZM149.995 109.224C141.631 109.224 134.083 107.439 127.351 103.869C120.721 100.299 115.468 95.199 111.592 88.569C107.818 81.939 105.931 74.187 105.931 65.313C105.931 56.541 107.869 48.84 111.745 42.21C115.621 35.478 120.925 30.327 127.657 26.757C134.389 23.187 141.937 21.402 150.301 21.402C158.665 21.402 166.213 23.187 172.945 26.757C179.677 30.327 184.981 35.478 188.857 42.21C192.733 48.84 194.671 56.541 194.671 65.313C194.671 74.085 192.682 81.837 188.704 88.569C184.828 95.199 179.473 100.299 172.639 103.869C165.907 107.439 158.359 109.224 149.995 109.224ZM149.995 86.58C154.993 86.58 159.226 84.744 162.694 81.072C166.264 77.4 168.049 72.147 168.049 65.313C168.049 58.479 166.315 53.226 162.847 49.554C159.481 45.882 155.299 44.046 150.301 44.046C145.201 44.046 140.968 45.882 137.602 49.554C134.236 53.124 132.553 58.377 132.553 65.313C132.553 72.147 134.185 77.4 137.449 81.072C140.815 84.744 144.997 86.58 149.995 86.58ZM292.854 22.626V108H266.691V96.372C264.039 100.146 260.418 103.206 255.828 105.552C251.34 107.796 246.342 108.918 240.834 108.918C234.306 108.918 228.543 107.49 223.545 104.634C218.547 101.676 214.671 97.443 211.917 91.935C209.163 86.427 207.786 79.95 207.786 72.504V22.626H233.796V68.985C233.796 74.697 235.275 79.134 238.233 82.296C241.191 85.458 245.169 87.039 250.167 87.039C255.267 87.039 259.296 85.458 262.254 82.296C265.212 79.134 266.691 74.697 266.691 68.985V22.626H292.854ZM337.81 36.855C340.87 32.163 344.695 28.491 349.285 25.839C353.875 23.085 358.975 21.708 364.585 21.708V49.401H357.394C350.866 49.401 345.97 50.829 342.706 53.685C339.442 56.439 337.81 61.335 337.81 68.373V108H311.647V22.626H337.81V36.855Z" fill="#7D007B"/>
</svg>
