<svg width="301" height="439" viewBox="0 0 301 439" fill="none" xmlns="http://www.w3.org/2000/svg">
<path d="M2.166 362.622C15.63 351.93 21.768 346.98 20.58 347.772C59.388 315.696 89.88 289.362 112.056 268.77C134.628 248.178 153.636 226.596 169.08 204.024C184.524 181.452 192.246 159.474 192.246 138.09C192.246 121.854 188.484 109.182 180.96 100.074C173.436 90.966 162.15 86.412 147.102 86.412C132.054 86.412 120.174 92.154 111.462 103.638C103.146 114.726 98.988 130.566 98.988 151.158H0.978C1.77 117.498 8.898 89.382 22.362 66.81C36.222 44.238 54.24 27.606 76.416 16.914C98.988 6.22197 123.936 0.875969 151.26 0.875969C198.384 0.875969 233.826 12.954 257.586 37.11C281.742 61.266 293.82 92.748 293.82 131.556C293.82 173.928 279.366 213.33 250.458 249.762C221.55 285.798 184.722 321.042 139.974 355.494H300.354V438.06H2.166V362.622Z" fill="#7D007B"/>
</svg>
