<svg width="303" height="448" viewBox="0 0 303 448" fill="none" xmlns="http://www.w3.org/2000/svg">
<path d="M6.294 132.744C7.878 90.372 21.738 57.702 47.874 34.734C74.01 11.766 109.452 0.281977 154.2 0.281977C183.9 0.281977 209.244 5.42998 230.232 15.726C251.616 26.022 267.654 40.08 278.346 57.9C289.434 75.72 294.978 95.718 294.978 117.894C294.978 144.03 288.444 165.414 275.376 182.046C262.308 198.282 247.062 209.37 229.638 215.31V217.686C252.21 225.21 270.03 237.684 283.098 255.108C296.166 272.532 302.7 294.906 302.7 322.23C302.7 346.782 296.958 368.562 285.474 387.57C274.386 406.182 257.952 420.834 236.172 431.526C214.788 442.218 189.246 447.564 159.546 447.564C112.026 447.564 74.01 435.882 45.498 412.518C17.382 389.154 2.532 353.91 0.948002 306.786H99.552C99.948 324.21 104.898 338.07 114.402 348.366C123.906 358.266 137.766 363.216 155.982 363.216C171.426 363.216 183.306 358.86 191.622 350.148C200.334 341.04 204.69 329.16 204.69 314.508C204.69 295.5 198.552 281.838 186.276 273.522C174.396 264.81 155.19 260.454 128.658 260.454H109.65V177.888H128.658C148.854 177.888 165.09 174.522 177.366 167.79C190.038 160.662 196.374 148.188 196.374 130.368C196.374 116.112 192.414 105.024 184.494 97.104C176.574 89.184 165.684 85.224 151.824 85.224C136.776 85.224 125.49 89.778 117.966 98.886C110.838 107.994 106.68 119.28 105.492 132.744H6.294Z" fill="#7D007B"/>
</svg>
