<svg width="1728" height="1117" viewBox="0 0 1728 1117" fill="none" xmlns="http://www.w3.org/2000/svg">
<rect width="1728" height="1117" fill="white"/>
<path d="M721.609 356.695V341.695H706.609V356.695H721.609ZM721.609 413.069H706.609V428.069H721.609V413.069ZM812.522 413.069H827.522V398.069H812.522V413.069ZM812.522 465.473V480.473H827.522V465.473H812.522ZM721.609 465.473V450.473H706.609V465.473H721.609ZM721.609 526.611H706.609V541.611H721.609V526.611ZM824.432 526.611H839.432V511.611H824.432V526.611ZM824.432 581V596H839.432V581H824.432ZM653.722 581H638.722V596H653.722V581ZM653.722 302.306V287.306H638.722V302.306H653.722ZM824.432 302.306H839.432V287.306H824.432V302.306ZM824.432 356.695V371.695H839.432V356.695H824.432ZM706.609 356.695V413.069H736.609V356.695H706.609ZM721.609 428.069H812.522V398.069H721.609V428.069ZM797.522 413.069V465.473H827.522V413.069H797.522ZM812.522 450.473H721.609V480.473H812.522V450.473ZM706.609 465.473V526.611H736.609V465.473H706.609ZM721.609 541.611H824.432V511.611H721.609V541.611ZM809.432 526.611V581H839.432V526.611H809.432ZM824.432 566H653.722V596H824.432V566ZM668.722 581V302.306H638.722V581H668.722ZM653.722 317.306H824.432V287.306H653.722V317.306ZM809.432 302.306V356.695H839.432V302.306H809.432ZM824.432 341.695H721.609V371.695H824.432V341.695Z" fill="url(#paint0_linear_35_532)"/>
<path d="M1000.18 686.64L988.143 695.592L992.642 701.64H1000.18V686.64ZM964.449 638.603L976.485 629.651L970.818 622.032L961.507 623.894L964.449 638.603ZM861.229 623.517L853.89 636.599L853.924 636.618L853.958 636.637L861.229 623.517ZM809.222 572.701L796.237 580.21L796.291 580.303L796.346 580.395L809.222 572.701ZM809.222 425.414L796.346 417.72L796.311 417.778L796.277 417.836L809.222 425.414ZM861.229 374.598L853.958 361.478L853.924 361.497L853.89 361.516L861.229 374.598ZM1005.34 374.598L998.001 387.68L998.035 387.699L998.069 387.718L1005.34 374.598ZM1056.95 425.414L1043.94 432.873L1043.97 432.933L1044 432.992L1056.95 425.414ZM1061.32 564.364L1047.86 557.728L1047.85 557.765L1047.83 557.802L1061.32 564.364ZM1021.22 613.195L1012.19 601.217L999.62 610.693L1009.69 622.792L1021.22 613.195ZM1082.36 686.64V701.64H1114.36L1093.89 677.043L1082.36 686.64ZM879.491 558.012L868.302 568.002L868.396 568.108L868.492 568.211L879.491 558.012ZM986.681 557.615L975.591 547.515L975.541 547.57L975.492 547.625L986.681 557.615ZM986.681 440.103L975.492 450.093L975.586 450.199L975.682 450.302L986.681 440.103ZM879.491 439.706L868.492 429.507L868.442 429.561L868.392 429.616L879.491 439.706ZM1012.21 677.688L976.485 629.651L952.413 647.555L988.143 695.592L1012.21 677.688ZM961.507 623.894C951.819 625.832 942.483 626.779 933.483 626.779V656.779C944.597 656.779 955.906 655.609 967.391 653.312L961.507 623.894ZM933.483 626.779C909.711 626.779 888.145 621.284 868.5 610.397L853.958 636.637C878.248 650.099 904.851 656.779 933.483 656.779V626.779ZM868.568 610.435C849.188 599.563 833.746 584.498 822.098 565.007L796.346 580.395C810.636 604.309 829.865 623.122 853.89 636.599L868.568 610.435ZM822.207 565.192C810.921 545.676 805.166 523.685 805.166 498.859H775.166C775.166 528.554 782.115 555.791 796.237 580.21L822.207 565.192ZM805.166 498.859C805.166 474.031 810.921 452.204 822.167 432.992L796.277 417.836C782.115 442.029 775.166 469.166 775.166 498.859H805.166ZM822.098 433.108C833.746 413.617 849.188 398.552 868.568 387.68L853.89 361.516C829.865 374.993 810.636 393.806 796.346 417.72L822.098 433.108ZM868.5 387.718C888.145 376.831 909.711 371.336 933.483 371.336V341.336C904.851 341.336 878.248 348.016 853.958 361.478L868.5 387.718ZM933.483 371.336C957.256 371.336 978.66 376.83 998.001 387.68L1012.68 361.516C988.615 348.016 962.114 341.336 933.483 341.336V371.336ZM998.069 387.718C1017.65 398.571 1032.86 413.556 1043.94 432.873L1069.96 417.955C1056.16 393.866 1036.96 374.975 1012.61 361.478L998.069 387.718ZM1044 432.992C1055.25 452.204 1061.01 474.031 1061.01 498.859H1091.01C1091.01 469.166 1084.06 442.029 1069.9 417.836L1044 432.992ZM1061.01 498.859C1061.01 520.556 1056.56 540.096 1047.86 557.728L1074.77 571C1085.66 548.932 1091.01 524.802 1091.01 498.859H1061.01ZM1047.83 557.802C1039.33 575.279 1027.48 589.692 1012.19 601.217L1030.25 625.173C1049.37 610.761 1064.25 592.619 1074.81 570.926L1047.83 557.802ZM1009.69 622.792L1070.83 696.237L1093.89 677.043L1032.75 603.598L1009.69 622.792ZM1082.36 671.64H1000.18V701.64H1082.36V671.64ZM844.641 498.859C844.641 526.242 852.065 549.817 868.302 568.002L890.68 548.022C880.45 536.564 874.641 520.704 874.641 498.859H844.641ZM868.492 568.211C885.22 586.251 907.425 594.847 933.483 594.847V564.847C914.548 564.847 900.758 558.886 890.49 547.813L868.492 568.211ZM933.483 594.847C959.422 594.847 981.434 586.013 997.87 567.605L975.492 547.625C965.461 558.86 952.008 564.847 933.483 564.847V594.847ZM997.771 567.715C1014.3 549.566 1021.93 526.101 1021.93 498.859H991.928C991.928 520.315 986.058 536.022 975.591 547.515L997.771 567.715ZM1021.93 498.859C1021.93 471.413 1014.33 447.86 997.68 429.904L975.682 450.302C986.028 461.459 991.928 477.077 991.928 498.859H1021.93ZM997.87 430.113C981.434 411.705 959.422 402.871 933.483 402.871V432.871C952.008 432.871 965.461 438.858 975.492 450.093L997.87 430.113ZM933.483 402.871C907.425 402.871 885.22 411.467 868.492 429.507L890.49 449.905C900.758 438.832 914.548 432.871 933.483 432.871V402.871ZM868.392 429.616C852.036 447.608 844.641 471.273 844.641 498.859H874.641C874.641 476.688 880.48 460.917 890.59 449.796L868.392 429.616Z" fill="url(#paint1_linear_35_532)"/>
<defs>
<linearGradient id="paint0_linear_35_532" x1="736" y1="206.5" x2="736.5" y2="740" gradientUnits="userSpaceOnUse">
<stop stop-color="#790277"/>
<stop offset="1"/>
</linearGradient>
<linearGradient id="paint1_linear_35_532" x1="932.772" y1="264.5" x2="933.116" y2="798" gradientUnits="userSpaceOnUse">
<stop stop-color="#790277"/>
<stop offset="1"/>
</linearGradient>
</defs>
</svg>
