<svg width="1728" height="1117" viewBox="0 0 1728 1117" fill="none" xmlns="http://www.w3.org/2000/svg">
<rect width="1728" height="1117" fill="white"/>
<path d="M721.609 356.695V341.695H706.609V356.695H721.609ZM721.609 413.069H706.609V428.069H721.609V413.069ZM812.522 413.069H827.522V398.069H812.522V413.069ZM812.522 465.473V480.473H827.522V465.473H812.522ZM721.609 465.473V450.473H706.609V465.473H721.609ZM721.609 526.611H706.609V541.611H721.609V526.611ZM824.432 526.611H839.432V511.611H824.432V526.611ZM824.432 581V596H839.432V581H824.432ZM653.722 581H638.722V596H653.722V581ZM653.722 302.306V287.306H638.722V302.306H653.722ZM824.432 302.306H839.432V287.306H824.432V302.306ZM824.432 356.695V371.695H839.432V356.695H824.432ZM706.609 356.695V413.069H736.609V356.695H706.609ZM721.609 428.069H812.522V398.069H721.609V428.069ZM797.522 413.069V465.473H827.522V413.069H797.522ZM812.522 450.473H721.609V480.473H812.522V450.473ZM706.609 465.473V526.611H736.609V465.473H706.609ZM721.609 541.611H824.432V511.611H721.609V541.611ZM809.432 526.611V581H839.432V526.611H809.432ZM824.432 566H653.722V596H824.432V566ZM668.722 581V302.306H638.722V581H668.722ZM653.722 317.306H824.432V287.306H653.722V317.306ZM809.432 302.306V356.695H839.432V302.306H809.432ZM824.432 341.695H721.609V371.695H824.432V341.695Z" fill="url(#paint0_linear_52_11)"/>
<path d="M1000.18 686.64L988.143 695.592L992.642 701.64H1000.18V686.64ZM964.449 638.603L976.485 629.651L970.818 622.032L961.507 623.894L964.449 638.603ZM861.229 623.517L853.89 636.599L853.924 636.618L853.958 636.637L861.229 623.517ZM809.222 572.701L796.237 580.21L796.291 580.303L796.346 580.395L809.222 572.701ZM809.222 425.414L796.346 417.72L796.311 417.778L796.277 417.836L809.222 425.414ZM861.229 374.598L853.958 361.478L853.924 361.497L853.89 361.516L861.229 374.598ZM1005.34 374.598L998.001 387.68L998.035 387.699L998.069 387.718L1005.34 374.598ZM1056.95 425.414L1043.94 432.873L1043.97 432.933L1044 432.992L1056.95 425.414ZM1061.32 564.364L1047.86 557.728L1047.85 557.765L1047.83 557.802L1061.32 564.364ZM1021.22 613.195L1012.19 601.217L999.62 610.693L1009.69 622.792L1021.22 613.195ZM1082.36 686.64V701.64H1114.36L1093.89 677.043L1082.36 686.64ZM879.491 558.012L868.302 568.002L868.396 568.108L868.492 568.211L879.491 558.012ZM986.681 557.615L975.591 547.515L975.541 547.57L975.492 547.625L986.681 557.615ZM986.681 440.103L975.492 450.093L975.586 450.199L975.682 450.302L986.681 440.103ZM879.491 439.706L868.492 429.507L868.442 429.561L868.392 429.616L879.491 439.706ZM1012.21 677.688L976.485 629.651L952.413 647.555L988.143 695.592L1012.21 677.688ZM961.507 623.894C951.819 625.832 942.483 626.779 933.483 626.779V656.779C944.597 656.779 955.906 655.609 967.391 653.312L961.507 623.894ZM933.483 626.779C909.711 626.779 888.145 621.284 868.5 610.397L853.958 636.637C878.248 650.099 904.851 656.779 933.483 656.779V626.779ZM868.568 610.435C849.188 599.563 833.746 584.498 822.098 565.007L796.346 580.395C810.636 604.309 829.865 623.122 853.89 636.599L868.568 610.435ZM822.207 565.192C810.921 545.676 805.166 523.685 805.166 498.859H775.166C775.166 528.554 782.115 555.791 796.237 580.21L822.207 565.192ZM805.166 498.859C805.166 474.031 810.921 452.204 822.167 432.992L796.277 417.836C782.115 442.029 775.166 469.166 775.166 498.859H805.166ZM822.098 433.108C833.746 413.617 849.188 398.552 868.568 387.68L853.89 361.516C829.865 374.993 810.636 393.806 796.346 417.72L822.098 433.108ZM868.5 387.718C888.145 376.831 909.711 371.336 933.483 371.336V341.336C904.851 341.336 878.248 348.016 853.958 361.478L868.5 387.718ZM933.483 371.336C957.256 371.336 978.66 376.83 998.001 387.68L1012.68 361.516C988.615 348.016 962.114 341.336 933.483 341.336V371.336ZM998.069 387.718C1017.65 398.571 1032.86 413.556 1043.94 432.873L1069.96 417.955C1056.16 393.866 1036.96 374.975 1012.61 361.478L998.069 387.718ZM1044 432.992C1055.25 452.204 1061.01 474.031 1061.01 498.859H1091.01C1091.01 469.166 1084.06 442.029 1069.9 417.836L1044 432.992ZM1061.01 498.859C1061.01 520.556 1056.56 540.096 1047.86 557.728L1074.77 571C1085.66 548.932 1091.01 524.802 1091.01 498.859H1061.01ZM1047.83 557.802C1039.33 575.279 1027.48 589.692 1012.19 601.217L1030.25 625.173C1049.37 610.761 1064.25 592.619 1074.81 570.926L1047.83 557.802ZM1009.69 622.792L1070.83 696.237L1093.89 677.043L1032.75 603.598L1009.69 622.792ZM1082.36 671.64H1000.18V701.64H1082.36V671.64ZM844.641 498.859C844.641 526.242 852.065 549.817 868.302 568.002L890.68 548.022C880.45 536.564 874.641 520.704 874.641 498.859H844.641ZM868.492 568.211C885.22 586.251 907.425 594.847 933.483 594.847V564.847C914.548 564.847 900.758 558.886 890.49 547.813L868.492 568.211ZM933.483 594.847C959.422 594.847 981.434 586.013 997.87 567.605L975.492 547.625C965.461 558.86 952.008 564.847 933.483 564.847V594.847ZM997.771 567.715C1014.3 549.566 1021.93 526.101 1021.93 498.859H991.928C991.928 520.315 986.058 536.022 975.591 547.515L997.771 567.715ZM1021.93 498.859C1021.93 471.413 1014.33 447.86 997.68 429.904L975.682 450.302C986.028 461.459 991.928 477.077 991.928 498.859H1021.93ZM997.87 430.113C981.434 411.705 959.422 402.871 933.483 402.871V432.871C952.008 432.871 965.461 438.858 975.492 450.093L997.87 430.113ZM933.483 402.871C907.425 402.871 885.22 411.467 868.492 429.507L890.49 449.905C900.758 438.832 914.548 432.871 933.483 432.871V402.871ZM868.392 429.616C852.036 447.608 844.641 471.273 844.641 498.859H874.641C874.641 476.688 880.48 460.917 890.59 449.796L868.392 429.616Z" fill="url(#paint1_linear_52_11)"/>
<path d="M398.069 802.46V818.932H424.633V834.244H398.069V852.108H428.113V868H378.233V786.568H428.113V802.46H398.069ZM480.431 802.576C488.009 802.576 494.041 805.051 498.527 810C503.089 814.872 505.371 821.6 505.371 830.184V868H485.651V832.852C485.651 828.521 484.529 825.157 482.287 822.76C480.044 820.363 477.028 819.164 473.239 819.164C469.449 819.164 466.433 820.363 464.191 822.76C461.948 825.157 460.827 828.521 460.827 832.852V868H440.991V803.272H460.827V811.856C462.837 808.995 465.544 806.752 468.947 805.128C472.349 803.427 476.177 802.576 480.431 802.576ZM543.747 802.344C548.31 802.344 552.292 803.272 555.695 805.128C559.175 806.984 561.843 809.42 563.699 812.436V803.272H583.535V867.884C583.535 873.839 582.336 879.213 579.939 884.008C577.619 888.88 574.023 892.747 569.151 895.608C564.356 898.469 558.363 899.9 551.171 899.9C541.582 899.9 533.81 897.619 527.855 893.056C521.9 888.571 518.498 882.461 517.647 874.728H537.251C537.87 877.203 539.339 879.136 541.659 880.528C543.979 881.997 546.84 882.732 550.243 882.732C554.342 882.732 557.59 881.533 559.987 879.136C562.462 876.816 563.699 873.065 563.699 867.884V858.72C561.766 861.736 559.098 864.211 555.695 866.144C552.292 868 548.31 868.928 543.747 868.928C538.411 868.928 533.578 867.575 529.247 864.868C524.916 862.084 521.475 858.179 518.923 853.152C516.448 848.048 515.211 842.171 515.211 835.52C515.211 828.869 516.448 823.031 518.923 818.004C521.475 812.977 524.916 809.111 529.247 806.404C533.578 803.697 538.411 802.344 543.747 802.344ZM563.699 835.636C563.699 830.687 562.307 826.781 559.523 823.92C556.816 821.059 553.491 819.628 549.547 819.628C545.603 819.628 542.239 821.059 539.455 823.92C536.748 826.704 535.395 830.571 535.395 835.52C535.395 840.469 536.748 844.413 539.455 847.352C542.239 850.213 545.603 851.644 549.547 851.644C553.491 851.644 556.816 850.213 559.523 847.352C562.307 844.491 563.699 840.585 563.699 835.636ZM617.721 782.16V868H597.885V782.16H617.721ZM642.072 796.544C638.592 796.544 635.731 795.539 633.488 793.528C631.323 791.44 630.24 788.888 630.24 785.872C630.24 782.779 631.323 780.227 633.488 778.216C635.731 776.128 638.592 775.084 642.072 775.084C645.475 775.084 648.259 776.128 650.424 778.216C652.667 780.227 653.788 782.779 653.788 785.872C653.788 788.888 652.667 791.44 650.424 793.528C648.259 795.539 645.475 796.544 642.072 796.544ZM651.932 803.272V868H632.096V803.272H651.932ZM692.639 868.928C686.994 868.928 681.967 867.961 677.559 866.028C673.151 864.095 669.671 861.465 667.119 858.14C664.567 854.737 663.137 850.948 662.827 846.772H682.431C682.663 849.015 683.707 850.832 685.563 852.224C687.419 853.616 689.701 854.312 692.407 854.312C694.882 854.312 696.777 853.848 698.091 852.92C699.483 851.915 700.179 850.639 700.179 849.092C700.179 847.236 699.213 845.883 697.279 845.032C695.346 844.104 692.214 843.099 687.883 842.016C683.243 840.933 679.377 839.812 676.283 838.652C673.19 837.415 670.522 835.52 668.279 832.968C666.037 830.339 664.915 826.82 664.915 822.412C664.915 818.7 665.921 815.336 667.931 812.32C670.019 809.227 673.035 806.791 676.979 805.012C681.001 803.233 685.757 802.344 691.247 802.344C699.367 802.344 705.747 804.355 710.387 808.376C715.105 812.397 717.811 817.733 718.507 824.384H700.179C699.87 822.141 698.865 820.363 697.163 819.048C695.539 817.733 693.374 817.076 690.667 817.076C688.347 817.076 686.569 817.54 685.331 818.468C684.094 819.319 683.475 820.517 683.475 822.064C683.475 823.92 684.442 825.312 686.375 826.24C688.386 827.168 691.479 828.096 695.655 829.024C700.45 830.261 704.355 831.499 707.371 832.736C710.387 833.896 713.017 835.829 715.259 838.536C717.579 841.165 718.778 844.723 718.855 849.208C718.855 852.997 717.773 856.4 715.607 859.416C713.519 862.355 710.465 864.675 706.443 866.376C702.499 868.077 697.898 868.928 692.639 868.928ZM770.779 802.576C778.203 802.576 784.157 805.051 788.643 810C793.128 814.872 795.371 821.6 795.371 830.184V868H775.651V832.852C775.651 828.521 774.529 825.157 772.287 822.76C770.044 820.363 767.028 819.164 763.239 819.164C759.449 819.164 756.433 820.363 754.191 822.76C751.948 825.157 750.827 828.521 750.827 832.852V868H730.991V782.16H750.827V811.972C752.837 809.111 755.583 806.829 759.063 805.128C762.543 803.427 766.448 802.576 770.779 802.576ZM925.957 786.568V868H906.121V819.164L887.909 868H871.901L853.573 819.048V868H833.737V786.568H857.169L880.021 842.944L902.641 786.568H925.957ZM936.277 835.52C936.277 828.869 937.515 823.031 939.989 818.004C942.541 812.977 945.983 809.111 950.313 806.404C954.644 803.697 959.477 802.344 964.813 802.344C969.376 802.344 973.359 803.272 976.761 805.128C980.241 806.984 982.909 809.42 984.765 812.436V803.272H1004.6V868H984.765V858.836C982.832 861.852 980.125 864.288 976.645 866.144C973.243 868 969.26 868.928 964.697 868.928C959.439 868.928 954.644 867.575 950.313 864.868C945.983 862.084 942.541 858.179 939.989 853.152C937.515 848.048 936.277 842.171 936.277 835.52ZM984.765 835.636C984.765 830.687 983.373 826.781 980.589 823.92C977.883 821.059 974.557 819.628 970.613 819.628C966.669 819.628 963.305 821.059 960.521 823.92C957.815 826.704 956.461 830.571 956.461 835.52C956.461 840.469 957.815 844.413 960.521 847.352C963.305 850.213 966.669 851.644 970.613 851.644C974.557 851.644 977.883 850.213 980.589 847.352C983.373 844.491 984.765 840.585 984.765 835.636ZM1045.28 868.928C1039.64 868.928 1034.61 867.961 1030.2 866.028C1025.8 864.095 1022.32 861.465 1019.76 858.14C1017.21 854.737 1015.78 850.948 1015.47 846.772H1035.08C1035.31 849.015 1036.35 850.832 1038.21 852.224C1040.06 853.616 1042.35 854.312 1045.05 854.312C1047.53 854.312 1049.42 853.848 1050.74 852.92C1052.13 851.915 1052.82 850.639 1052.82 849.092C1052.82 847.236 1051.86 845.883 1049.92 845.032C1047.99 844.104 1044.86 843.099 1040.53 842.016C1035.89 840.933 1032.02 839.812 1028.93 838.652C1025.83 837.415 1023.17 835.52 1020.92 832.968C1018.68 830.339 1017.56 826.82 1017.56 822.412C1017.56 818.7 1018.57 815.336 1020.58 812.32C1022.66 809.227 1025.68 806.791 1029.62 805.012C1033.65 803.233 1038.4 802.344 1043.89 802.344C1052.01 802.344 1058.39 804.355 1063.03 808.376C1067.75 812.397 1070.46 817.733 1071.15 824.384H1052.82C1052.51 822.141 1051.51 820.363 1049.81 819.048C1048.18 817.733 1046.02 817.076 1043.31 817.076C1040.99 817.076 1039.21 817.54 1037.98 818.468C1036.74 819.319 1036.12 820.517 1036.12 822.064C1036.12 823.92 1037.09 825.312 1039.02 826.24C1041.03 827.168 1044.12 828.096 1048.3 829.024C1053.09 830.261 1057 831.499 1060.02 832.736C1063.03 833.896 1065.66 835.829 1067.9 838.536C1070.22 841.165 1071.42 844.723 1071.5 849.208C1071.5 852.997 1070.42 856.4 1068.25 859.416C1066.16 862.355 1063.11 864.675 1059.09 866.376C1055.14 868.077 1050.54 868.928 1045.28 868.928ZM1119.71 851.18V868H1109.62C1102.43 868 1096.82 866.26 1092.8 862.78C1088.78 859.223 1086.77 853.461 1086.77 845.496V819.744H1078.88V803.272H1086.77V787.496H1106.6V803.272H1119.6V819.744H1106.6V845.728C1106.6 847.661 1107.07 849.053 1108 849.904C1108.92 850.755 1110.47 851.18 1112.64 851.18H1119.71ZM1191.78 834.592C1191.78 836.448 1191.66 838.381 1191.43 840.392H1146.54C1146.85 844.413 1148.12 847.507 1150.36 849.672C1152.68 851.76 1155.51 852.804 1158.83 852.804C1163.78 852.804 1167.22 850.716 1169.16 846.54H1190.27C1189.19 850.793 1187.21 854.621 1184.35 858.024C1181.57 861.427 1178.05 864.095 1173.8 866.028C1169.54 867.961 1164.79 868.928 1159.53 868.928C1153.19 868.928 1147.54 867.575 1142.59 864.868C1137.64 862.161 1133.78 858.295 1130.99 853.268C1128.21 848.241 1126.82 842.364 1126.82 835.636C1126.82 828.908 1128.17 823.031 1130.88 818.004C1133.66 812.977 1137.53 809.111 1142.48 806.404C1147.43 803.697 1153.11 802.344 1159.53 802.344C1165.79 802.344 1171.36 803.659 1176.23 806.288C1181.1 808.917 1184.89 812.668 1187.6 817.54C1190.38 822.412 1191.78 828.096 1191.78 834.592ZM1171.48 829.372C1171.48 825.969 1170.32 823.263 1168 821.252C1165.68 819.241 1162.78 818.236 1159.3 818.236C1155.97 818.236 1153.15 819.203 1150.83 821.136C1148.59 823.069 1147.19 825.815 1146.65 829.372H1171.48ZM1222.08 814.06C1224.4 810.503 1227.3 807.719 1230.78 805.708C1234.26 803.62 1238.12 802.576 1242.38 802.576V823.572H1236.92C1231.98 823.572 1228.26 824.655 1225.79 826.82C1223.31 828.908 1222.08 832.62 1222.08 837.956V868H1202.24V803.272H1222.08V814.06ZM1317.98 803.272L1277.38 898.74H1256.03L1270.88 865.796L1244.55 803.272H1266.71L1281.67 843.756L1296.52 803.272H1317.98ZM745.547 1055.92L735.107 1041.88C732.014 1042.5 728.998 1042.81 726.059 1042.81C718.403 1042.81 711.366 1041.03 704.947 1037.48C698.606 1033.92 693.541 1028.97 689.751 1022.63C686.039 1016.21 684.183 1009.02 684.183 1001.05C684.183 993.087 686.039 985.933 689.751 979.592C693.541 973.251 698.606 968.301 704.947 964.744C711.366 961.187 718.403 959.408 726.059 959.408C733.715 959.408 740.714 961.187 747.055 964.744C753.474 968.301 758.501 973.251 762.135 979.592C765.847 985.933 767.703 993.087 767.703 1001.05C767.703 1008.01 766.273 1014.39 763.411 1020.19C760.627 1025.91 756.722 1030.67 751.695 1034.46L769.559 1055.92H745.547ZM704.483 1001.05C704.483 1008.24 706.417 1014.01 710.283 1018.34C714.227 1022.59 719.486 1024.72 726.059 1024.72C732.555 1024.72 737.737 1022.55 741.603 1018.22C745.547 1013.89 747.519 1008.17 747.519 1001.05C747.519 993.86 745.547 988.137 741.603 983.884C737.737 979.553 732.555 977.388 726.059 977.388C719.486 977.388 714.227 979.515 710.283 983.768C706.417 988.021 704.483 993.783 704.483 1001.05ZM842.881 977.272V1042H823.045V1033.18C821.035 1036.05 818.289 1038.37 814.809 1040.14C811.407 1041.85 807.617 1042.7 803.441 1042.7C798.492 1042.7 794.123 1041.61 790.333 1039.45C786.544 1037.21 783.605 1034 781.517 1029.82C779.429 1025.64 778.385 1020.73 778.385 1015.09V977.272H798.105V1012.42C798.105 1016.75 799.227 1020.11 801.469 1022.51C803.712 1024.91 806.728 1026.11 810.517 1026.11C814.384 1026.11 817.439 1024.91 819.681 1022.51C821.924 1020.11 823.045 1016.75 823.045 1012.42V977.272H842.881ZM918.145 1008.59C918.145 1010.45 918.03 1012.38 917.798 1014.39H872.906C873.215 1018.41 874.491 1021.51 876.734 1023.67C879.054 1025.76 881.876 1026.8 885.202 1026.8C890.151 1026.8 893.592 1024.72 895.526 1020.54H916.638C915.555 1024.79 913.583 1028.62 910.722 1032.02C907.938 1035.43 904.419 1038.09 900.166 1040.03C895.912 1041.96 891.156 1042.93 885.898 1042.93C879.556 1042.93 873.911 1041.57 868.962 1038.87C864.012 1036.16 860.146 1032.29 857.362 1027.27C854.578 1022.24 853.186 1016.36 853.186 1009.64C853.186 1002.91 854.539 997.031 857.246 992.004C860.03 986.977 863.896 983.111 868.846 980.404C873.795 977.697 879.479 976.344 885.898 976.344C892.162 976.344 897.73 977.659 902.602 980.288C907.474 982.917 911.263 986.668 913.97 991.54C916.754 996.412 918.145 1002.1 918.145 1008.59ZM897.846 1003.37C897.846 999.969 896.686 997.263 894.366 995.252C892.046 993.241 889.146 992.236 885.666 992.236C882.34 992.236 879.518 993.203 877.198 995.136C874.955 997.069 873.563 999.815 873.022 1003.37H897.846ZM954.942 1042.93C949.297 1042.93 944.27 1041.96 939.862 1040.03C935.454 1038.09 931.974 1035.47 929.422 1032.14C926.87 1028.74 925.439 1024.95 925.13 1020.77H944.734C944.966 1023.01 946.01 1024.83 947.866 1026.22C949.722 1027.62 952.003 1028.31 954.71 1028.31C957.185 1028.31 959.079 1027.85 960.394 1026.92C961.786 1025.91 962.482 1024.64 962.482 1023.09C962.482 1021.24 961.515 1019.88 959.582 1019.03C957.649 1018.1 954.517 1017.1 950.186 1016.02C945.546 1014.93 941.679 1013.81 938.586 1012.65C935.493 1011.41 932.825 1009.52 930.582 1006.97C928.339 1004.34 927.218 1000.82 927.218 996.412C927.218 992.7 928.223 989.336 930.234 986.32C932.322 983.227 935.338 980.791 939.282 979.012C943.303 977.233 948.059 976.344 953.55 976.344C961.67 976.344 968.05 978.355 972.69 982.376C977.407 986.397 980.114 991.733 980.81 998.384H962.482C962.173 996.141 961.167 994.363 959.466 993.048C957.842 991.733 955.677 991.076 952.97 991.076C950.65 991.076 948.871 991.54 947.634 992.468C946.397 993.319 945.778 994.517 945.778 996.064C945.778 997.92 946.745 999.312 948.678 1000.24C950.689 1001.17 953.782 1002.1 957.958 1003.02C962.753 1004.26 966.658 1005.5 969.674 1006.74C972.69 1007.9 975.319 1009.83 977.562 1012.54C979.882 1015.17 981.081 1018.72 981.158 1023.21C981.158 1027 980.075 1030.4 977.91 1033.42C975.822 1036.35 972.767 1038.67 968.746 1040.38C964.802 1042.08 960.201 1042.93 954.942 1042.93ZM1029.37 1025.18V1042H1019.28C1012.09 1042 1006.48 1040.26 1002.46 1036.78C998.436 1033.22 996.426 1027.46 996.426 1019.5V993.744H988.538V977.272H996.426V961.496H1016.26V977.272H1029.25V993.744H1016.26V1019.73C1016.26 1021.66 1016.73 1023.05 1017.65 1023.9C1018.58 1024.75 1020.13 1025.18 1022.29 1025.18H1029.37Z" fill="#7D007B"/>
<defs>
<linearGradient id="paint0_linear_52_11" x1="736" y1="206.5" x2="736.5" y2="740" gradientUnits="userSpaceOnUse">
<stop stop-color="#790277"/>
<stop offset="1"/>
</linearGradient>
<linearGradient id="paint1_linear_52_11" x1="932.772" y1="264.5" x2="933.116" y2="798" gradientUnits="userSpaceOnUse">
<stop stop-color="#790277"/>
<stop offset="1"/>
</linearGradient>
</defs>
</svg>
