<svg width="367" height="479" viewBox="0 0 367 479" fill="none" xmlns="http://www.w3.org/2000/svg">
<path fill-rule="evenodd" clip-rule="evenodd" d="M367 61.2674C367 45.026 360.55 29.4307 349.095 17.9347C337.618 6.46093 322.048 0 305.833 0C241.975 0 125.025 0 61.1667 0C44.9519 0 29.3822 6.46093 17.9051 17.9347C6.4503 29.4307 0 45.026 0 61.2674C0 146.641 0 332.359 0 417.733C0 433.974 6.4503 449.569 17.9051 461.065C29.3822 472.539 44.9519 479 61.1667 479C125.025 479 241.975 479 305.833 479C322.048 479 337.618 472.539 349.095 461.065C360.55 449.569 367 433.974 367 417.733V61.2674ZM60.4994 384.982L82.7418 407.261C89.2588 413.789 99.8018 413.789 106.319 407.261L150.804 362.703C157.321 356.198 157.321 345.593 150.804 339.087C144.309 332.56 133.721 332.56 127.227 339.087L94.5303 371.815L84.0764 361.366C77.5816 354.839 66.9942 354.839 60.4994 361.366C53.9824 367.872 53.9824 378.477 60.4994 384.982ZM205.742 389.884H283.591C292.799 389.884 300.273 382.398 300.273 373.174C300.273 363.951 292.799 356.465 283.591 356.465H205.742C196.534 356.465 189.061 363.951 189.061 373.174C189.061 382.398 196.534 389.884 205.742 389.884ZM129.251 239.5L139.682 229.029C146.199 222.523 146.199 211.919 139.682 205.413C133.188 198.885 122.6 198.885 116.105 205.413L105.652 215.862L95.1976 205.413C88.7028 198.885 78.1154 198.885 71.6206 205.413C65.1036 211.919 65.1036 222.523 71.6206 229.029L82.0523 239.5L71.6206 249.971C65.1036 256.477 65.1036 267.081 71.6206 273.587C78.1154 280.115 88.7028 280.115 95.1976 273.587L105.652 263.138L116.105 273.587C122.6 280.115 133.188 280.115 139.682 273.587C146.199 267.081 146.199 256.477 139.682 249.971L129.251 239.5ZM205.742 256.209H283.591C292.799 256.209 300.273 248.724 300.273 239.5C300.273 230.276 292.799 222.791 283.591 222.791H205.742C196.534 222.791 189.061 230.276 189.061 239.5C189.061 248.724 196.534 256.209 205.742 256.209ZM60.4994 117.633L82.7418 139.913C89.2588 146.44 99.8018 146.44 106.319 139.913L150.804 95.3544C157.321 88.8489 157.321 78.2441 150.804 71.7386C144.309 65.2108 133.721 65.2108 127.227 71.7386L94.5303 104.467L84.0764 94.0177C77.5816 87.4899 66.9942 87.4899 60.4994 94.0177C53.9824 100.523 53.9824 111.128 60.4994 117.633ZM205.742 122.535H283.591C292.799 122.535 300.273 115.049 300.273 105.826C300.273 96.6021 292.799 89.1163 283.591 89.1163H205.742C196.534 89.1163 189.061 96.6021 189.061 105.826C189.061 115.049 196.534 122.535 205.742 122.535Z" fill="white"/>
</svg>
