<svg width="940" height="281" viewBox="0 0 940 281" fill="none" xmlns="http://www.w3.org/2000/svg">
<path d="M20.069 27.46V43.932H46.633V59.244H20.069V77.108H50.113V93H0.233016V11.568H50.113V27.46H20.069ZM102.431 27.576C110.009 27.576 116.041 30.0507 120.527 35C125.089 39.872 127.371 46.6 127.371 55.184V93H107.651V57.852C107.651 53.5213 106.529 50.1573 104.287 47.76C102.044 45.3627 99.0282 44.164 95.2388 44.164C91.4495 44.164 88.4335 45.3627 86.1908 47.76C83.9482 50.1573 82.8268 53.5213 82.8268 57.852V93H62.9908V28.272H82.8268V36.856C84.8375 33.9947 87.5442 31.752 90.9468 30.128C94.3495 28.4267 98.1775 27.576 102.431 27.576ZM165.747 27.344C170.31 27.344 174.292 28.272 177.695 30.128C181.175 31.984 183.843 34.42 185.699 37.436V28.272H205.535V92.884C205.535 98.8387 204.336 104.213 201.939 109.008C199.619 113.88 196.023 117.747 191.151 120.608C186.356 123.469 180.363 124.9 173.171 124.9C163.582 124.9 155.81 122.619 149.855 118.056C143.9 113.571 140.498 107.461 139.647 99.728H159.251C159.87 102.203 161.339 104.136 163.659 105.528C165.979 106.997 168.84 107.732 172.243 107.732C176.342 107.732 179.59 106.533 181.987 104.136C184.462 101.816 185.699 98.0653 185.699 92.884V83.72C183.766 86.736 181.098 89.2107 177.695 91.144C174.292 93 170.31 93.928 165.747 93.928C160.411 93.928 155.578 92.5747 151.247 89.868C146.916 87.084 143.475 83.1787 140.923 78.152C138.448 73.048 137.211 67.1707 137.211 60.52C137.211 53.8693 138.448 48.0307 140.923 43.004C143.475 37.9773 146.916 34.1107 151.247 31.404C155.578 28.6973 160.411 27.344 165.747 27.344ZM185.699 60.636C185.699 55.6867 184.307 51.7813 181.523 48.92C178.816 46.0587 175.491 44.628 171.547 44.628C167.603 44.628 164.239 46.0587 161.455 48.92C158.748 51.704 157.395 55.5707 157.395 60.52C157.395 65.4693 158.748 69.4133 161.455 72.352C164.239 75.2133 167.603 76.644 171.547 76.644C175.491 76.644 178.816 75.2133 181.523 72.352C184.307 69.4907 185.699 65.5853 185.699 60.636ZM239.721 7.16V93H219.885V7.16H239.721ZM264.072 21.544C260.592 21.544 257.731 20.5387 255.488 18.528C253.323 16.44 252.24 13.888 252.24 10.872C252.24 7.77866 253.323 5.22666 255.488 3.21599C257.731 1.12799 260.592 0.0839932 264.072 0.0839932C267.475 0.0839932 270.259 1.12799 272.424 3.21599C274.667 5.22666 275.788 7.77866 275.788 10.872C275.788 13.888 274.667 16.44 272.424 18.528C270.259 20.5387 267.475 21.544 264.072 21.544ZM273.932 28.272V93H254.096V28.272H273.932ZM314.639 93.928C308.994 93.928 303.967 92.9613 299.559 91.028C295.151 89.0947 291.671 86.4653 289.119 83.14C286.567 79.7373 285.137 75.948 284.827 71.772H304.431C304.663 74.0147 305.707 75.832 307.563 77.224C309.419 78.616 311.701 79.312 314.407 79.312C316.882 79.312 318.777 78.848 320.091 77.92C321.483 76.9147 322.179 75.6387 322.179 74.092C322.179 72.236 321.213 70.8827 319.279 70.032C317.346 69.104 314.214 68.0987 309.883 67.016C305.243 65.9333 301.377 64.812 298.283 63.652C295.19 62.4147 292.522 60.52 290.279 57.968C288.037 55.3387 286.915 51.82 286.915 47.412C286.915 43.7 287.921 40.336 289.931 37.32C292.019 34.2267 295.035 31.7907 298.979 30.012C303.001 28.2333 307.757 27.344 313.247 27.344C321.367 27.344 327.747 29.3547 332.387 33.376C337.105 37.3973 339.811 42.7333 340.507 49.384H322.179C321.87 47.1413 320.865 45.3627 319.163 44.048C317.539 42.7333 315.374 42.076 312.667 42.076C310.347 42.076 308.569 42.54 307.331 43.468C306.094 44.3187 305.475 45.5173 305.475 47.064C305.475 48.92 306.442 50.312 308.375 51.24C310.386 52.168 313.479 53.096 317.655 54.024C322.45 55.2613 326.355 56.4987 329.371 57.736C332.387 58.896 335.017 60.8293 337.259 63.536C339.579 66.1653 340.778 69.7227 340.855 74.208C340.855 77.9973 339.773 81.4 337.607 84.416C335.519 87.3547 332.465 89.6747 328.443 91.376C324.499 93.0773 319.898 93.928 314.639 93.928ZM392.779 27.576C400.203 27.576 406.157 30.0507 410.643 35C415.128 39.872 417.371 46.6 417.371 55.184V93H397.651V57.852C397.651 53.5213 396.529 50.1573 394.287 47.76C392.044 45.3627 389.028 44.164 385.239 44.164C381.449 44.164 378.433 45.3627 376.191 47.76C373.948 50.1573 372.827 53.5213 372.827 57.852V93H352.991V7.16H372.827V36.972C374.837 34.1107 377.583 31.8293 381.063 30.128C384.543 28.4267 388.448 27.576 392.779 27.576ZM547.957 11.568V93H528.121V44.164L509.909 93H493.901L475.573 44.048V93H455.737V11.568H479.169L502.021 67.944L524.641 11.568H547.957ZM558.277 60.52C558.277 53.8693 559.515 48.0307 561.989 43.004C564.541 37.9773 567.983 34.1107 572.313 31.404C576.644 28.6973 581.477 27.344 586.813 27.344C591.376 27.344 595.359 28.272 598.761 30.128C602.241 31.984 604.909 34.42 606.765 37.436V28.272H626.601V93H606.765V83.836C604.832 86.852 602.125 89.288 598.645 91.144C595.243 93 591.26 93.928 586.697 93.928C581.439 93.928 576.644 92.5747 572.313 89.868C567.983 87.084 564.541 83.1787 561.989 78.152C559.515 73.048 558.277 67.1707 558.277 60.52ZM606.765 60.636C606.765 55.6867 605.373 51.7813 602.589 48.92C599.883 46.0587 596.557 44.628 592.613 44.628C588.669 44.628 585.305 46.0587 582.521 48.92C579.815 51.704 578.461 55.5707 578.461 60.52C578.461 65.4693 579.815 69.4133 582.521 72.352C585.305 75.2133 588.669 76.644 592.613 76.644C596.557 76.644 599.883 75.2133 602.589 72.352C605.373 69.4907 606.765 65.5853 606.765 60.636ZM667.284 93.928C661.638 93.928 656.612 92.9613 652.204 91.028C647.796 89.0947 644.316 86.4653 641.764 83.14C639.212 79.7373 637.781 75.948 637.472 71.772H657.076C657.308 74.0147 658.352 75.832 660.208 77.224C662.064 78.616 664.345 79.312 667.052 79.312C669.526 79.312 671.421 78.848 672.736 77.92C674.128 76.9147 674.824 75.6387 674.824 74.092C674.824 72.236 673.857 70.8827 671.924 70.032C669.99 69.104 666.858 68.0987 662.528 67.016C657.888 65.9333 654.021 64.812 650.928 63.652C647.834 62.4147 645.166 60.52 642.924 57.968C640.681 55.3387 639.56 51.82 639.56 47.412C639.56 43.7 640.565 40.336 642.576 37.32C644.664 34.2267 647.68 31.7907 651.624 30.012C655.645 28.2333 660.401 27.344 665.892 27.344C674.012 27.344 680.392 29.3547 685.032 33.376C689.749 37.3973 692.456 42.7333 693.152 49.384H674.824C674.514 47.1413 673.509 45.3627 671.808 44.048C670.184 42.7333 668.018 42.076 665.312 42.076C662.992 42.076 661.213 42.54 659.976 43.468C658.738 44.3187 658.12 45.5173 658.12 47.064C658.12 48.92 659.086 50.312 661.02 51.24C663.03 52.168 666.124 53.096 670.3 54.024C675.094 55.2613 679 56.4987 682.016 57.736C685.032 58.896 687.661 60.8293 689.904 63.536C692.224 66.1653 693.422 69.7227 693.5 74.208C693.5 77.9973 692.417 81.4 690.252 84.416C688.164 87.3547 685.109 89.6747 681.088 91.376C677.144 93.0773 672.542 93.928 667.284 93.928ZM741.711 76.18V93H731.619C724.427 93 718.821 91.26 714.799 87.78C710.778 84.2227 708.767 78.4613 708.767 70.496V44.744H700.879V28.272H708.767V12.496H728.603V28.272H741.595V44.744H728.603V70.728C728.603 72.6613 729.067 74.0533 729.995 74.904C730.923 75.7547 732.47 76.18 734.635 76.18H741.711ZM813.776 59.592C813.776 61.448 813.66 63.3813 813.428 65.392H768.536C768.846 69.4133 770.122 72.5067 772.364 74.672C774.684 76.76 777.507 77.804 780.832 77.804C785.782 77.804 789.223 75.716 791.156 71.54H812.268C811.186 75.7933 809.214 79.6213 806.352 83.024C803.568 86.4267 800.05 89.0947 795.796 91.028C791.543 92.9613 786.787 93.928 781.528 93.928C775.187 93.928 769.542 92.5747 764.592 89.868C759.643 87.1613 755.776 83.2947 752.992 78.268C750.208 73.2413 748.816 67.364 748.816 60.636C748.816 53.908 750.17 48.0307 752.876 43.004C755.66 37.9773 759.527 34.1107 764.476 31.404C769.426 28.6973 775.11 27.344 781.528 27.344C787.792 27.344 793.36 28.6587 798.232 31.288C803.104 33.9173 806.894 37.668 809.6 42.54C812.384 47.412 813.776 53.096 813.776 59.592ZM793.476 54.372C793.476 50.9693 792.316 48.2627 789.996 46.252C787.676 44.2413 784.776 43.236 781.296 43.236C777.971 43.236 775.148 44.2027 772.828 46.136C770.586 48.0693 769.194 50.8147 768.652 54.372H793.476ZM844.077 39.06C846.397 35.5027 849.297 32.7187 852.777 30.708C856.257 28.62 860.123 27.576 864.377 27.576V48.572H858.925C853.975 48.572 850.263 49.6547 847.789 51.82C845.314 53.908 844.077 57.62 844.077 62.956V93H824.241V28.272H844.077V39.06ZM939.978 28.272L899.378 123.74H878.034L892.882 90.796L866.55 28.272H888.706L903.67 68.756L918.518 28.272H939.978ZM367.547 280.92L357.107 266.884C354.014 267.503 350.998 267.812 348.059 267.812C340.403 267.812 333.366 266.033 326.947 262.476C320.606 258.919 315.541 253.969 311.751 247.628C308.039 241.209 306.183 234.017 306.183 226.052C306.183 218.087 308.039 210.933 311.751 204.592C315.541 198.251 320.606 193.301 326.947 189.744C333.366 186.187 340.403 184.408 348.059 184.408C355.715 184.408 362.714 186.187 369.055 189.744C375.474 193.301 380.501 198.251 384.135 204.592C387.847 210.933 389.703 218.087 389.703 226.052C389.703 233.012 388.273 239.392 385.411 245.192C382.627 250.915 378.722 255.671 373.695 259.46L391.559 280.92H367.547ZM326.483 226.052C326.483 233.244 328.417 239.005 332.283 243.336C336.227 247.589 341.486 249.716 348.059 249.716C354.555 249.716 359.737 247.551 363.603 243.22C367.547 238.889 369.519 233.167 369.519 226.052C369.519 218.86 367.547 213.137 363.603 208.884C359.737 204.553 354.555 202.388 348.059 202.388C341.486 202.388 336.227 204.515 332.283 208.768C328.417 213.021 326.483 218.783 326.483 226.052ZM464.881 202.272V267H445.045V258.184C443.035 261.045 440.289 263.365 436.809 265.144C433.407 266.845 429.617 267.696 425.441 267.696C420.492 267.696 416.123 266.613 412.333 264.448C408.544 262.205 405.605 258.996 403.517 254.82C401.429 250.644 400.385 245.733 400.385 240.088V202.272H420.105V237.42C420.105 241.751 421.227 245.115 423.469 247.512C425.712 249.909 428.728 251.108 432.517 251.108C436.384 251.108 439.439 249.909 441.681 247.512C443.924 245.115 445.045 241.751 445.045 237.42V202.272H464.881ZM540.145 233.592C540.145 235.448 540.03 237.381 539.798 239.392H494.906C495.215 243.413 496.491 246.507 498.734 248.672C501.054 250.76 503.876 251.804 507.202 251.804C512.151 251.804 515.592 249.716 517.526 245.54H538.638C537.555 249.793 535.583 253.621 532.722 257.024C529.938 260.427 526.419 263.095 522.166 265.028C517.912 266.961 513.156 267.928 507.898 267.928C501.556 267.928 495.911 266.575 490.962 263.868C486.012 261.161 482.146 257.295 479.362 252.268C476.578 247.241 475.186 241.364 475.186 234.636C475.186 227.908 476.539 222.031 479.246 217.004C482.03 211.977 485.896 208.111 490.846 205.404C495.795 202.697 501.479 201.344 507.898 201.344C514.162 201.344 519.73 202.659 524.602 205.288C529.474 207.917 533.263 211.668 535.97 216.54C538.754 221.412 540.145 227.096 540.145 233.592ZM519.846 228.372C519.846 224.969 518.686 222.263 516.366 220.252C514.046 218.241 511.146 217.236 507.666 217.236C504.34 217.236 501.518 218.203 499.198 220.136C496.955 222.069 495.563 224.815 495.022 228.372H519.846ZM576.942 267.928C571.297 267.928 566.27 266.961 561.862 265.028C557.454 263.095 553.974 260.465 551.422 257.14C548.87 253.737 547.439 249.948 547.13 245.772H566.734C566.966 248.015 568.01 249.832 569.866 251.224C571.722 252.616 574.003 253.312 576.71 253.312C579.185 253.312 581.079 252.848 582.394 251.92C583.786 250.915 584.482 249.639 584.482 248.092C584.482 246.236 583.515 244.883 581.582 244.032C579.649 243.104 576.517 242.099 572.186 241.016C567.546 239.933 563.679 238.812 560.586 237.652C557.493 236.415 554.825 234.52 552.582 231.968C550.339 229.339 549.218 225.82 549.218 221.412C549.218 217.7 550.223 214.336 552.234 211.32C554.322 208.227 557.338 205.791 561.282 204.012C565.303 202.233 570.059 201.344 575.55 201.344C583.67 201.344 590.05 203.355 594.69 207.376C599.407 211.397 602.114 216.733 602.81 223.384H584.482C584.173 221.141 583.167 219.363 581.466 218.048C579.842 216.733 577.677 216.076 574.97 216.076C572.65 216.076 570.871 216.54 569.634 217.468C568.397 218.319 567.778 219.517 567.778 221.064C567.778 222.92 568.745 224.312 570.678 225.24C572.689 226.168 575.782 227.096 579.958 228.024C584.753 229.261 588.658 230.499 591.674 231.736C594.69 232.896 597.319 234.829 599.562 237.536C601.882 240.165 603.081 243.723 603.158 248.208C603.158 251.997 602.075 255.4 599.91 258.416C597.822 261.355 594.767 263.675 590.746 265.376C586.802 267.077 582.201 267.928 576.942 267.928ZM651.37 250.18V267H641.278C634.086 267 628.479 265.26 624.458 261.78C620.436 258.223 618.426 252.461 618.426 244.496V218.744H610.538V202.272H618.426V186.496H638.262V202.272H651.254V218.744H638.262V244.728C638.262 246.661 638.726 248.053 639.654 248.904C640.582 249.755 642.128 250.18 644.294 250.18H651.37Z" fill="#7D007B"/>
</svg>
