<svg width="447" height="447" viewBox="0 0 447 447" fill="none" xmlns="http://www.w3.org/2000/svg">
<path d="M381.247 65.6499C339.074 23.4927 283.009 0.280762 223.379 0.280762C163.745 0.280762 107.68 23.4927 65.5118 65.6499C23.3438 107.802 0.123047 163.845 0.123047 223.457C0.123047 283.064 23.3438 339.107 65.5118 381.259C107.68 423.411 163.745 446.628 223.379 446.628C283.009 446.628 339.074 423.411 381.247 381.259C423.41 339.107 446.636 283.064 446.636 223.457C446.636 163.845 423.41 107.802 381.247 65.6499ZM386.492 217.412L386.444 229.025L339.935 228.842L339.987 217.228L386.492 217.412ZM361.932 137.537L367.66 147.629L327.224 170.563L321.497 160.471L361.932 137.537ZM300.077 79.1425L310.088 85.0045L286.589 125.099L276.572 119.242L300.077 79.1425ZM359.717 359.743C323.297 396.153 274.882 416.201 223.374 416.201C171.866 416.201 123.451 396.153 87.0316 359.743C50.6071 323.342 30.552 274.94 30.552 223.457C30.552 171.969 50.6071 123.572 87.0316 87.1614C123.451 50.756 171.866 30.7034 223.374 30.7034C223.757 30.7034 224.141 30.7192 224.519 30.7244V71.3177V223.452L389.705 321.091C381.488 335.019 371.456 348.013 359.717 359.743Z" fill="white"/>
</svg>
