<svg width="593" height="158" viewBox="0 0 593 158" fill="none" xmlns="http://www.w3.org/2000/svg">
<path d="M19.535 52.49C15.9417 52.49 12.7217 51.9067 9.87504 50.74C7.02837 49.5733 4.74171 47.8467 3.01504 45.56C1.33504 43.2733 0.448373 40.52 0.355039 37.3H13.095C13.2817 39.12 13.9117 40.52 14.985 41.5C16.0584 42.4333 17.4584 42.9 19.185 42.9C20.9584 42.9 22.3584 42.5033 23.385 41.71C24.4117 40.87 24.925 39.7267 24.925 38.28C24.925 37.0667 24.505 36.0633 23.665 35.27C22.8717 34.4767 21.8684 33.8233 20.655 33.31C19.4884 32.7967 17.8084 32.2133 15.615 31.56C12.4417 30.58 9.85171 29.6 7.84504 28.62C5.83837 27.64 4.11171 26.1933 2.66504 24.28C1.21837 22.3667 0.495039 19.87 0.495039 16.79C0.495039 12.2167 2.15171 8.64667 5.46504 6.08C8.77837 3.46667 13.095 2.16 18.415 2.16C23.8284 2.16 28.1917 3.46667 31.505 6.08C34.8184 8.64667 36.5917 12.24 36.825 16.86H23.875C23.7817 15.2733 23.1984 14.0367 22.125 13.15C21.0517 12.2167 19.675 11.75 17.995 11.75C16.5484 11.75 15.3817 12.1467 14.495 12.94C13.6084 13.6867 13.165 14.7833 13.165 16.23C13.165 17.8167 13.9117 19.0533 15.405 19.94C16.8984 20.8267 19.2317 21.7833 22.405 22.81C25.5784 23.8833 28.145 24.91 30.105 25.89C32.1117 26.87 33.8384 28.2933 35.285 30.16C36.7317 32.0267 37.455 34.43 37.455 37.37C37.455 40.17 36.7317 42.7133 35.285 45C33.885 47.2867 31.8317 49.1067 29.125 50.46C26.4184 51.8133 23.2217 52.49 19.535 52.49ZM56.7914 18.47C57.9581 16.65 59.5681 15.18 61.6214 14.06C63.6748 12.94 66.0781 12.38 68.8314 12.38C72.0514 12.38 74.9681 13.1967 77.5814 14.83C80.1948 16.4633 82.2481 18.7967 83.7414 21.83C85.2814 24.8633 86.0514 28.3867 86.0514 32.4C86.0514 36.4133 85.2814 39.96 83.7414 43.04C82.2481 46.0733 80.1948 48.43 77.5814 50.11C74.9681 51.7433 72.0514 52.56 68.8314 52.56C66.1248 52.56 63.7214 52 61.6214 50.88C59.5681 49.76 57.9581 48.3133 56.7914 46.54V70.62H44.8214V12.94H56.7914V18.47ZM73.8714 32.4C73.8714 29.4133 73.0314 27.08 71.3514 25.4C69.7181 23.6733 67.6881 22.81 65.2614 22.81C62.8814 22.81 60.8514 23.6733 59.1714 25.4C57.5381 27.1267 56.7214 29.4833 56.7214 32.47C56.7214 35.4567 57.5381 37.8133 59.1714 39.54C60.8514 41.2667 62.8814 42.13 65.2614 42.13C67.6414 42.13 69.6714 41.2667 71.3514 39.54C73.0314 37.7667 73.8714 35.3867 73.8714 32.4ZM129.151 31.84C129.151 32.96 129.081 34.1267 128.941 35.34H101.851C102.038 37.7667 102.808 39.6333 104.161 40.94C105.561 42.2 107.265 42.83 109.271 42.83C112.258 42.83 114.335 41.57 115.501 39.05H128.241C127.588 41.6167 126.398 43.9267 124.671 45.98C122.991 48.0333 120.868 49.6433 118.301 50.81C115.735 51.9767 112.865 52.56 109.691 52.56C105.865 52.56 102.458 51.7433 99.4712 50.11C96.4845 48.4767 94.1512 46.1433 92.4712 43.11C90.7912 40.0767 89.9512 36.53 89.9512 32.47C89.9512 28.41 90.7679 24.8633 92.4012 21.83C94.0812 18.7967 96.4145 16.4633 99.4012 14.83C102.388 13.1967 105.818 12.38 109.691 12.38C113.471 12.38 116.831 13.1733 119.771 14.76C122.711 16.3467 124.998 18.61 126.631 21.55C128.311 24.49 129.151 27.92 129.151 31.84ZM116.901 28.69C116.901 26.6367 116.201 25.0033 114.801 23.79C113.401 22.5767 111.651 21.97 109.551 21.97C107.545 21.97 105.841 22.5533 104.441 23.72C103.088 24.8867 102.248 26.5433 101.921 28.69H116.901ZM172.286 31.84C172.286 32.96 172.216 34.1267 172.076 35.34H144.986C145.173 37.7667 145.943 39.6333 147.296 40.94C148.696 42.2 150.399 42.83 152.406 42.83C155.393 42.83 157.469 41.57 158.636 39.05H171.376C170.723 41.6167 169.533 43.9267 167.806 45.98C166.126 48.0333 164.003 49.6433 161.436 50.81C158.869 51.9767 155.999 52.56 152.826 52.56C148.999 52.56 145.593 51.7433 142.606 50.11C139.619 48.4767 137.286 46.1433 135.606 43.11C133.926 40.0767 133.086 36.53 133.086 32.47C133.086 28.41 133.903 24.8633 135.536 21.83C137.216 18.7967 139.549 16.4633 142.536 14.83C145.523 13.1967 148.953 12.38 152.826 12.38C156.606 12.38 159.966 13.1733 162.906 14.76C165.846 16.3467 168.133 18.61 169.766 21.55C171.446 24.49 172.286 27.92 172.286 31.84ZM160.036 28.69C160.036 26.6367 159.336 25.0033 157.936 23.79C156.536 22.5767 154.786 21.97 152.686 21.97C150.679 21.97 148.976 22.5533 147.576 23.72C146.223 24.8867 145.383 26.5433 145.056 28.69H160.036ZM176.221 32.4C176.221 28.3867 176.967 24.8633 178.461 21.83C180.001 18.7967 182.077 16.4633 184.691 14.83C187.304 13.1967 190.221 12.38 193.441 12.38C196.007 12.38 198.341 12.9167 200.441 13.99C202.587 15.0633 204.267 16.51 205.481 18.33V0.199999H217.451V52H205.481V46.4C204.361 48.2667 202.751 49.76 200.651 50.88C198.597 52 196.194 52.56 193.441 52.56C190.221 52.56 187.304 51.7433 184.691 50.11C182.077 48.43 180.001 46.0733 178.461 43.04C176.967 39.96 176.221 36.4133 176.221 32.4ZM205.481 32.47C205.481 29.4833 204.641 27.1267 202.961 25.4C201.327 23.6733 199.321 22.81 196.941 22.81C194.561 22.81 192.531 23.6733 190.851 25.4C189.217 27.08 188.401 29.4133 188.401 32.4C188.401 35.3867 189.217 37.7667 190.851 39.54C192.531 41.2667 194.561 42.13 196.941 42.13C199.321 42.13 201.327 41.2667 202.961 39.54C204.641 37.8133 205.481 35.4567 205.481 32.47ZM252.704 2.86V32.26C252.704 35.2 253.428 37.4633 254.874 39.05C256.321 40.6367 258.444 41.43 261.244 41.43C264.044 41.43 266.191 40.6367 267.684 39.05C269.178 37.4633 269.924 35.2 269.924 32.26V2.86H281.894V32.19C281.894 36.5767 280.961 40.2867 279.094 43.32C277.228 46.3533 274.708 48.64 271.534 50.18C268.408 51.72 264.908 52.49 261.034 52.49C257.161 52.49 253.684 51.7433 250.604 50.25C247.571 48.71 245.168 46.4233 243.394 43.39C241.621 40.31 240.734 36.5767 240.734 32.19V2.86H252.704ZM302.27 18.47C303.437 16.65 305.047 15.18 307.1 14.06C309.153 12.94 311.557 12.38 314.31 12.38C317.53 12.38 320.447 13.1967 323.06 14.83C325.673 16.4633 327.727 18.7967 329.22 21.83C330.76 24.8633 331.53 28.3867 331.53 32.4C331.53 36.4133 330.76 39.96 329.22 43.04C327.727 46.0733 325.673 48.43 323.06 50.11C320.447 51.7433 317.53 52.56 314.31 52.56C311.603 52.56 309.2 52 307.1 50.88C305.047 49.76 303.437 48.3133 302.27 46.54V70.62H290.3V12.94H302.27V18.47ZM319.35 32.4C319.35 29.4133 318.51 27.08 316.83 25.4C315.197 23.6733 313.167 22.81 310.74 22.81C308.36 22.81 306.33 23.6733 304.65 25.4C303.017 27.1267 302.2 29.4833 302.2 32.47C302.2 35.4567 303.017 37.8133 304.65 39.54C306.33 41.2667 308.36 42.13 310.74 42.13C313.12 42.13 315.15 41.2667 316.83 39.54C318.51 37.7667 319.35 35.3867 319.35 32.4ZM352.65 12.38C355.403 12.38 357.806 12.94 359.86 14.06C361.96 15.18 363.57 16.65 364.69 18.47V12.94H376.66V51.93C376.66 55.5233 375.936 58.7667 374.49 61.66C373.09 64.6 370.92 66.9333 367.98 68.66C365.086 70.3867 361.47 71.25 357.13 71.25C351.343 71.25 346.653 69.8733 343.06 67.12C339.466 64.4133 337.413 60.7267 336.9 56.06H348.73C349.103 57.5533 349.99 58.72 351.39 59.56C352.79 60.4467 354.516 60.89 356.57 60.89C359.043 60.89 361.003 60.1667 362.45 58.72C363.943 57.32 364.69 55.0567 364.69 51.93V46.4C363.523 48.22 361.913 49.7133 359.86 50.88C357.806 52 355.403 52.56 352.65 52.56C349.43 52.56 346.513 51.7433 343.9 50.11C341.286 48.43 339.21 46.0733 337.67 43.04C336.176 39.96 335.43 36.4133 335.43 32.4C335.43 28.3867 336.176 24.8633 337.67 21.83C339.21 18.7967 341.286 16.4633 343.9 14.83C346.513 13.1967 349.43 12.38 352.65 12.38ZM364.69 32.47C364.69 29.4833 363.85 27.1267 362.17 25.4C360.536 23.6733 358.53 22.81 356.15 22.81C353.77 22.81 351.74 23.6733 350.06 25.4C348.426 27.08 347.61 29.4133 347.61 32.4C347.61 35.3867 348.426 37.7667 350.06 39.54C351.74 41.2667 353.77 42.13 356.15 42.13C358.53 42.13 360.536 41.2667 362.17 39.54C363.85 37.8133 364.69 35.4567 364.69 32.47ZM397.289 19.45C398.689 17.3033 400.439 15.6233 402.539 14.41C404.639 13.15 406.973 12.52 409.539 12.52V25.19H406.249C403.263 25.19 401.023 25.8433 399.529 27.15C398.036 28.41 397.289 30.65 397.289 33.87V52H385.319V12.94H397.289V19.45ZM412.881 32.4C412.881 28.3867 413.628 24.8633 415.121 21.83C416.661 18.7967 418.738 16.4633 421.351 14.83C423.964 13.1967 426.881 12.38 430.101 12.38C432.854 12.38 435.258 12.94 437.311 14.06C439.411 15.18 441.021 16.65 442.141 18.47V12.94H454.111V52H442.141V46.47C440.974 48.29 439.341 49.76 437.241 50.88C435.188 52 432.784 52.56 430.031 52.56C426.858 52.56 423.964 51.7433 421.351 50.11C418.738 48.43 416.661 46.0733 415.121 43.04C413.628 39.96 412.881 36.4133 412.881 32.4ZM442.141 32.47C442.141 29.4833 441.301 27.1267 439.621 25.4C437.988 23.6733 435.981 22.81 433.601 22.81C431.221 22.81 429.191 23.6733 427.511 25.4C425.878 27.08 425.061 29.4133 425.061 32.4C425.061 35.3867 425.878 37.7667 427.511 39.54C429.191 41.2667 431.221 42.13 433.601 42.13C435.981 42.13 437.988 41.2667 439.621 39.54C441.301 37.8133 442.141 35.4567 442.141 32.47ZM460.391 32.4C460.391 28.3867 461.137 24.8633 462.631 21.83C464.171 18.7967 466.247 16.4633 468.861 14.83C471.474 13.1967 474.391 12.38 477.611 12.38C480.177 12.38 482.511 12.9167 484.611 13.99C486.757 15.0633 488.437 16.51 489.651 18.33V0.199999H501.621V52H489.651V46.4C488.531 48.2667 486.921 49.76 484.821 50.88C482.767 52 480.364 52.56 477.611 52.56C474.391 52.56 471.474 51.7433 468.861 50.11C466.247 48.43 464.171 46.0733 462.631 43.04C461.137 39.96 460.391 36.4133 460.391 32.4ZM489.651 32.47C489.651 29.4833 488.811 27.1267 487.131 25.4C485.497 23.6733 483.491 22.81 481.111 22.81C478.731 22.81 476.701 23.6733 475.021 25.4C473.387 27.08 472.571 29.4133 472.571 32.4C472.571 35.3867 473.387 37.7667 475.021 39.54C476.701 41.2667 478.731 42.13 481.111 42.13C483.491 42.13 485.497 41.2667 487.131 39.54C488.811 37.8133 489.651 35.4567 489.651 32.47ZM547.1 31.84C547.1 32.96 547.03 34.1267 546.89 35.34H519.8C519.987 37.7667 520.757 39.6333 522.11 40.94C523.51 42.2 525.214 42.83 527.22 42.83C530.207 42.83 532.284 41.57 533.45 39.05H546.19C545.537 41.6167 544.347 43.9267 542.62 45.98C540.94 48.0333 538.817 49.6433 536.25 50.81C533.684 51.9767 530.814 52.56 527.64 52.56C523.814 52.56 520.407 51.7433 517.42 50.11C514.434 48.4767 512.1 46.1433 510.42 43.11C508.74 40.0767 507.9 36.53 507.9 32.47C507.9 28.41 508.717 24.8633 510.35 21.83C512.03 18.7967 514.364 16.4633 517.35 14.83C520.337 13.1967 523.767 12.38 527.64 12.38C531.42 12.38 534.78 13.1733 537.72 14.76C540.66 16.3467 542.947 18.61 544.58 21.55C546.26 24.49 547.1 27.92 547.1 31.84ZM534.85 28.69C534.85 26.6367 534.15 25.0033 532.75 23.79C531.35 22.5767 529.6 21.97 527.5 21.97C525.494 21.97 523.79 22.5533 522.39 23.72C521.037 24.8867 520.197 26.5433 519.87 28.69H534.85ZM551.035 32.4C551.035 28.3867 551.782 24.8633 553.275 21.83C554.815 18.7967 556.892 16.4633 559.505 14.83C562.119 13.1967 565.035 12.38 568.255 12.38C570.822 12.38 573.155 12.9167 575.255 13.99C577.402 15.0633 579.082 16.51 580.295 18.33V0.199999H592.265V52H580.295V46.4C579.175 48.2667 577.565 49.76 575.465 50.88C573.412 52 571.009 52.56 568.255 52.56C565.035 52.56 562.119 51.7433 559.505 50.11C556.892 48.43 554.815 46.0733 553.275 43.04C551.782 39.96 551.035 36.4133 551.035 32.4ZM580.295 32.47C580.295 29.4833 579.455 27.1267 577.775 25.4C576.142 23.6733 574.135 22.81 571.755 22.81C569.375 22.81 567.345 23.6733 565.665 25.4C564.032 27.08 563.215 29.4133 563.215 32.4C563.215 35.3867 564.032 37.7667 565.665 39.54C567.345 41.2667 569.375 42.13 571.755 42.13C574.135 42.13 576.142 41.2667 577.775 39.54C579.455 37.8133 580.295 35.4567 580.295 32.47ZM293.726 107.86V117.45H280.706V157H268.736V117.45H255.716V107.86H293.726ZM317.514 157.56C313.687 157.56 310.234 156.743 307.154 155.11C304.12 153.477 301.717 151.143 299.944 148.11C298.217 145.077 297.354 141.53 297.354 137.47C297.354 133.457 298.24 129.933 300.014 126.9C301.787 123.82 304.214 121.463 307.294 119.83C310.374 118.197 313.827 117.38 317.654 117.38C321.48 117.38 324.934 118.197 328.014 119.83C331.094 121.463 333.52 123.82 335.294 126.9C337.067 129.933 337.954 133.457 337.954 137.47C337.954 141.483 337.044 145.03 335.224 148.11C333.45 151.143 331 153.477 327.874 155.11C324.794 156.743 321.34 157.56 317.514 157.56ZM317.514 147.2C319.8 147.2 321.737 146.36 323.324 144.68C324.957 143 325.774 140.597 325.774 137.47C325.774 134.343 324.98 131.94 323.394 130.26C321.854 128.58 319.94 127.74 317.654 127.74C315.32 127.74 313.384 128.58 311.844 130.26C310.304 131.893 309.534 134.297 309.534 137.47C309.534 140.597 310.28 143 311.774 144.68C313.314 146.36 315.227 147.2 317.514 147.2Z" fill="#790078"/>
</svg>
